<?xml version="1.0" encoding="UTF-8"?>
<svg width="32px" height="32px" viewBox="0 0 32 32" version="1.1" xmlns="http://www.w3.org/2000/svg">
    <title>Cloud Favicon</title>
    <g stroke="none" stroke-width="1" fill="none" fill-rule="evenodd">
        <path d="M24,14 C27.3137085,14 30,16.6862915 30,20 C30,23.3137085 27.3137085,26 24,26 L8,26 C4.6862915,26 2,23.3137085 2,20 C2,16.6862915 4.6862915,14 8,14 C8.07366865,14 8.14693334,14.0012086 8.21975332,14.0036067 C9.59167081,10.5412777 12.9488695,8 16.9,8 C21.3970814,8 25.0489874,11.1323712 25.8226741,15.3446436 C25.8818063,15.3341768 25.9414039,15.3244494 26.0014405,15.3154792 C25.3627136,14.5493998 25,13.5816171 25,12.5 C25,9.46243388 27.4624339,7 30.5,7 C30.6712329,7 30.8404213,7.00778044 31.0072402,7.02290199 C30.3561542,9.81254681 28.5210362,12.1322386 26,13.2742393 L26,13.5 C26,13.6712329 25.9922196,13.8404213 25.977098,14.0072402 C25.3224999,14.0024547 24.6577696,14.0297809 24,14.0891229 L24,14 Z" fill="#4A90E2" fill-rule="nonzero"></path>
    </g>
</svg>